<svg width="737" height="770" viewBox="0 0 737 770" fill="none" xmlns="http://www.w3.org/2000/svg">
<g clip-path="url(#clip0_993_1062)">
<path d="M143.181 142.757L144.488 179.55L205.412 89.7458L143.181 142.757Z" fill="#5A47FB" stroke="#5A47FB" stroke-width="0.5"/>
<path d="M144.958 144.607L79.99 110.646L143.946 179.801L144.958 144.607Z" fill="#D3F500" stroke="#5A47FB" stroke-width="0.5"/>
<path d="M142.776 29.2478L145.062 144.829L205.156 89.8915L142.776 29.2478Z" fill="url(#paint0_linear_993_1062)" stroke="#5A47FB" stroke-width="0.5"/>
<path d="M145.139 144.735L80.0406 110.82L142.272 29.3243L145.139 144.735Z" fill="white" stroke="#5A47FB" stroke-width="0.5"/>
<path d="M521.713 411.518C526.436 420.879 525.903 431.877 520.789 443.801C515.675 455.725 505.997 468.526 492.524 481.436C465.582 507.254 423.537 533.435 372.771 553.838C322.005 574.242 272.173 584.987 232.655 585.88C212.895 586.326 195.741 584.308 182.349 579.822C168.957 575.337 159.377 568.403 154.654 559.042C149.932 549.681 150.465 538.683 155.579 526.759C160.693 514.835 170.371 502.034 183.843 489.124C210.786 463.306 252.831 437.125 303.597 416.722C354.363 396.318 404.195 385.573 443.712 384.681C463.473 384.234 480.626 386.252 494.019 390.738C507.411 395.223 516.991 402.157 521.713 411.518Z" stroke="url(#paint1_linear_993_1062)"/>
<path opacity="0.8" d="M530.457 414.427C535.566 424.555 535.153 436.38 529.934 449.138C524.715 461.897 514.705 475.546 500.704 489.268C472.703 516.711 428.812 544.377 375.663 565.738C322.514 587.099 270.212 598.094 228.63 598.617C207.838 598.878 189.753 596.521 175.59 591.551C161.429 586.583 151.235 579.021 146.125 568.893C141.016 558.764 141.429 546.939 146.648 534.182C151.867 521.423 161.877 507.774 175.879 494.051C203.88 466.608 247.771 438.943 300.92 417.582C354.069 396.221 406.37 385.226 447.952 384.703C468.744 384.442 486.83 386.799 500.992 391.768C515.153 396.737 525.347 404.299 530.457 414.427Z" stroke="url(#paint2_linear_993_1062)"/>
<path opacity="0.6" d="M542.25 418.16C547.872 429.305 547.631 442.22 542.295 456.075C536.958 469.933 526.538 484.693 511.874 499.477C482.547 529.043 436.316 558.634 380.125 581.217C323.935 603.801 268.467 615.084 224.225 615.085C202.103 615.086 182.814 612.266 167.652 606.647C152.493 601.029 141.498 592.63 135.875 581.485C130.253 570.341 130.495 557.425 135.831 543.57C141.167 529.713 151.587 514.953 166.251 500.169C195.578 470.602 241.81 441.012 298 418.428C354.191 395.845 409.658 384.562 453.9 384.56C476.022 384.56 495.311 387.38 510.473 392.998C525.633 398.616 536.628 407.015 542.25 418.16Z" stroke="url(#paint3_linear_993_1062)"/>
<path opacity="0.4" d="M558.027 424.023C564.298 436.453 564.247 450.76 558.712 466.027C553.176 481.296 542.163 497.494 526.568 513.66C495.379 545.99 445.93 578.12 385.607 602.364C325.285 626.609 265.554 638.358 217.759 637.772C193.861 637.48 172.973 634.103 156.494 627.681C140.018 621.261 127.983 611.812 121.712 599.382C115.441 586.952 115.492 572.645 121.027 557.378C126.563 542.109 137.576 525.911 153.171 509.745C184.36 477.415 233.809 445.285 294.132 421.041C354.454 396.797 414.185 385.047 461.98 385.633C485.878 385.925 506.766 389.302 523.245 395.724C539.721 402.144 551.756 411.593 558.027 424.023Z" stroke="url(#paint4_linear_993_1062)"/>
<path opacity="0.2" d="M603.728 430.241C611.548 445.743 611.69 463.489 605.182 482.342C598.674 501.198 585.521 521.134 566.806 540.971C529.376 580.643 469.758 619.851 396.817 649.167C323.877 678.482 251.468 692.336 193.377 691.055C164.331 690.414 138.889 685.989 118.757 677.84C98.6278 669.693 83.8346 657.835 76.0139 642.333C68.1932 626.831 68.0518 609.085 74.5593 590.232C81.068 571.375 94.2203 551.44 112.936 531.603C150.366 491.931 209.984 452.723 282.924 423.407C355.865 394.092 428.273 380.237 486.364 381.519C515.41 382.16 540.852 386.585 560.985 394.734C581.114 402.881 595.907 414.739 603.728 430.241Z" stroke="url(#paint5_linear_993_1062)"/>
<path opacity="0.2" d="M578.494 428.643C585.558 442.646 585.688 458.68 579.806 475.719C573.924 492.762 562.035 510.783 545.115 528.717C511.275 564.584 457.374 600.033 391.424 626.539C325.474 653.045 260.008 665.57 207.49 664.412C181.23 663.832 158.232 659.832 140.035 652.467C121.842 645.103 108.478 634.388 101.413 620.385C94.3487 606.381 94.2192 590.348 100.101 573.308C105.983 556.265 117.872 538.244 134.792 520.31C168.632 484.443 222.533 448.994 288.483 422.488C354.433 395.983 419.899 383.457 472.418 384.616C498.678 385.195 521.676 389.195 539.872 396.561C558.065 403.925 571.429 414.639 578.494 428.643Z" stroke="url(#paint6_linear_993_1062)"/>
<ellipse rx="190.539" ry="71.5561" transform="matrix(0.927865 -0.372916 0.450416 0.892819 337.181 481.608)" fill="url(#paint7_linear_993_1062)"/>
<ellipse rx="97.1183" ry="36.4724" transform="matrix(0.927865 -0.372916 0.450416 0.892819 337.219 476.115)" fill="#392D9E"/>
<g clip-path="url(#clip1_993_1062)">
<path d="M429.911 432.932C421.045 413.327 372.189 415.903 320.788 438.686C269.387 461.468 234.905 495.831 243.771 515.436C252.637 535.041 301.493 532.465 352.894 509.682C404.295 486.9 438.777 452.537 429.911 432.932Z" fill="#D7FFF8" stroke="#333333" stroke-width="0.5" stroke-miterlimit="10"/>
<path d="M253.162 524.334C271.725 533.222 311.438 528.013 352.876 509.657C394.313 491.301 424.707 465.413 430.315 445.789C411.752 436.9 372.059 442.101 330.634 460.485C289.21 478.869 258.77 504.709 253.162 524.334Z" fill="#392D9E" stroke="#392D9E" stroke-width="0.5" stroke-linejoin="round"/>
</g>
<path d="M340.527 209.142L477.689 273.15L339.732 360.218L201.378 273.15L340.527 209.142Z" fill="white" stroke="white" stroke-linejoin="round"/>
<path d="M340.526 222.392L453.209 274.928L339.873 346.392L226.209 274.928L340.526 222.392Z" fill="#5A47FB" stroke="white" stroke-linejoin="round"/>
<path d="M338.768 359.857L201.209 272.392L338.768 495.03V359.857Z" fill="url(#paint8_linear_993_1062)" stroke="white" stroke-linejoin="round"/>
<path d="M339.209 359.857L476.768 272.392L339.209 495.03V359.857Z" fill="url(#paint9_linear_993_1062)" stroke="white" stroke-linejoin="round"/>
<path d="M527.103 196.772C532.316 208.033 532.002 221.251 526.896 235.554C521.788 249.861 511.897 265.219 498.016 280.71C470.256 311.69 426.606 343.124 373.64 367.643C320.674 392.162 268.465 405.105 226.882 406.226C206.089 406.787 187.979 404.391 173.766 399.028C159.556 393.666 149.275 385.354 144.062 374.093C138.849 362.832 139.163 349.614 144.269 335.311C149.377 321.004 159.268 305.645 173.149 290.155C200.909 259.175 244.559 227.741 297.525 203.222C350.491 178.702 402.7 165.759 444.283 164.639C465.076 164.078 483.186 166.474 497.399 171.837C511.609 177.198 521.89 185.511 527.103 196.772Z" stroke="white"/>
<path d="M523.871 94.4421L584.784 57.4817L642.049 147.583L665.304 238.605L643.628 349.404L593.114 386.06L508.92 445.279" stroke="white"/>
<circle cx="643.628" cy="349.404" r="10.6667" transform="rotate(18.3058 643.628 349.404)" fill="#A9F801"/>
<circle cx="664.745" cy="240.292" r="8.88889" transform="rotate(18.3058 664.745 240.292)" fill="#A9F801"/>
<circle cx="643.172" cy="147.019" r="5.33333" transform="rotate(18.3058 643.172 147.019)" fill="#A9F801"/>
<circle cx="590.303" cy="386.066" r="8.88889" transform="rotate(18.3058 590.303 386.066)" fill="#A9F801"/>
<circle cx="584.505" cy="58.3265" r="5.33333" transform="rotate(18.3058 584.505 58.3265)" fill="#A9F801"/>
<circle cx="523.87" cy="94.4426" r="3.55556" transform="rotate(18.3058 523.87 94.4426)" fill="#A9F801"/>
<circle cx="507.232" cy="444.72" r="5.33333" transform="rotate(18.3058 507.232 444.72)" fill="#A9F801"/>
<path d="M586.288 144.798C592.319 120.075 614.909 104.461 636.655 109.766C658.401 115.07 671.263 139.332 665.233 164.055C659.202 188.778 636.612 204.392 614.866 199.087C593.12 193.783 580.258 169.521 586.288 144.798Z" fill="#A9F801" stroke="white"/>
<path d="M580.716 143.438C586.747 118.716 609.337 103.102 631.083 108.406C652.829 113.711 665.691 137.973 659.66 162.696C653.63 187.419 631.04 203.033 609.294 197.728C587.548 192.423 574.685 168.161 580.716 143.438Z" fill="white" stroke="white"/>
<path d="M594.48 146.796C598.416 130.661 613.145 120.507 627.289 123.957C641.433 127.407 649.832 143.204 645.896 159.338C641.961 175.472 627.232 185.627 613.087 182.176C598.943 178.726 590.544 162.93 594.48 146.796Z" fill="#5A47FB" stroke="white"/>
<g clip-path="url(#clip2_993_1062)">
<path d="M616.677 149.133C613.152 151.019 606.868 150.851 603.494 150.487C606.805 150.808 613.562 151.96 616.14 154.492C615.373 156.378 614.19 158.029 612.7 159.294C614.079 158.01 615.708 157.096 617.454 156.626C618.988 160.455 618.957 167.317 618.56 171.07C618.913 167.424 620.348 160.385 622.551 157.139C624.215 157.955 625.665 159.207 626.776 160.788C625.598 159.246 624.784 157.404 624.406 155.423C627.785 153.487 634.29 153.787 637.6 154.126C634.288 153.805 627.829 152.35 624.995 150.032C625.733 148.203 626.858 146.588 628.276 145.326C626.893 146.633 625.249 147.559 623.485 148.027C621.995 144.441 622.112 137.201 622.499 133.558C622.145 137.204 620.825 144.438 618.572 147.514C616.895 146.704 615.433 145.45 614.314 143.861C615.482 145.374 616.293 147.184 616.677 149.133Z" fill="white" stroke="white" stroke-linecap="round" stroke-linejoin="round"/>
</g>
<path d="M198.25 423.389L198.654 443.574L232.822 394.851L198.25 423.389Z" fill="black" stroke="black" stroke-width="0.5"/>
<path d="M199.208 424.419L163.874 405.246L198.354 443.708L199.208 424.419Z" fill="#3EDAE2" stroke="black" stroke-width="0.5"/>
<path d="M198.991 361.148L199.263 424.542L232.68 394.929L198.991 361.148Z" fill="url(#paint10_linear_993_1062)" stroke="black" stroke-width="0.5"/>
<path d="M199.306 424.491L163.9 405.342L198.714 361.186L199.306 424.491Z" fill="white" stroke="black" stroke-width="0.5"/>
<path d="M204.21 244.115L340.527 27.3906V327.556L204.21 244.115Z" fill="white" stroke="black" stroke-linejoin="round"/>
<path d="M476.845 244.115L340.527 27.3906V327.556L476.845 244.115Z" fill="url(#paint11_linear_993_1062)" stroke="black" stroke-linejoin="round"/>
<g clip-path="url(#clip3_993_1062)">
<path d="M286.733 98.6135C286.733 98.6135 297.642 97.0531 300.954 96.4755C301.259 96.4109 301.56 96.348 301.868 96.2944L301.885 96.2848C302 96.2649 302.118 96.2438 302.236 96.2225C302.486 96.1776 302.74 96.1317 302.991 96.0938C331.239 91.7165 354.763 121.469 355.53 162.549C356.298 203.628 334.008 240.487 305.775 244.859M286.733 98.6135L305.775 244.859M286.733 98.6135L286.85 102.426L286.733 98.6135ZM305.775 244.859L305.728 244.395L291.778 246.558L291.702 244.006L291.693 243.695L291.367 243.606C280.858 240.734 271.613 232.854 264.909 221.449C258.209 210.049 254.072 195.163 253.758 178.357L253.758 178.357C253.446 161.998 256.809 146.32 262.747 133.121C268.688 119.917 277.192 109.227 287.134 102.801L287.384 102.639L287.376 102.375L287.273 99.0069C287.577 98.9632 288.007 98.9012 288.531 98.8256C289.606 98.6702 291.073 98.457 292.644 98.2258C295.783 97.7639 299.347 97.2281 301.013 96.9376L301.024 96.9357L301.034 96.9335C301.339 96.8689 301.631 96.8081 301.926 96.7566L302.023 96.7396L302.041 96.7299C302.131 96.7141 302.221 96.698 302.309 96.6821C302.554 96.638 302.794 96.5948 303.036 96.5582L303.038 96.5579C316.903 94.4093 329.684 100.622 339.128 112.568C348.569 124.51 354.622 142.127 355.004 162.596C355.386 183.063 350.023 202.462 341.069 217.273C332.108 232.095 319.604 242.247 305.728 244.395L305.775 244.859Z" fill="black" stroke="black"/>
<path d="M290.755 246.731C304.442 244.791 316.817 234.84 325.733 220.157C334.643 205.482 340.042 186.159 339.785 165.672C339.528 145.184 333.663 127.457 324.417 115.355C315.164 103.246 302.584 96.8309 288.897 98.7701C275.211 100.709 262.836 110.66 253.92 125.344C245.01 140.018 239.61 159.342 239.868 179.829C240.125 200.316 245.99 218.044 255.236 230.145C264.488 242.255 277.069 248.67 290.755 246.731Z" fill="white" stroke="black"/>
<path d="M290.931 232.127C302.279 230.519 312.555 222.266 319.967 210.059C327.373 197.862 331.864 181.796 331.65 164.757C331.436 147.719 326.558 132.98 318.872 122.921C311.181 112.855 300.735 107.538 289.387 109.146C278.039 110.754 267.763 119.007 260.351 131.213C252.945 143.41 248.454 159.477 248.668 176.515C248.882 193.554 253.76 208.293 261.445 218.351C269.137 228.418 279.583 233.735 290.931 232.127Z" fill="#5A47FB" stroke="black"/>
</g>
<path d="M322.09 157.892C321.611 154.61 296.283 162.044 293.657 159.491C291.032 156.939 299.358 133.56 293.62 134.305C290.768 134.675 286.523 155.939 283.652 158.38C280.781 160.821 262.905 157.981 261.151 162.041C260.032 164.631 276.726 167.006 277.909 169.789C279.089 172.572 258.903 193.083 261.904 195.557C265.052 198.153 280.916 176.444 284.009 176.144C287.102 175.843 297.081 202.042 300.512 199.021C304.065 195.89 293.562 174.223 295.453 170.858C297.344 167.492 322.682 161.931 322.092 157.892L322.09 157.892Z" fill="white"/>
<path d="M321.627 157.357C320.502 159.377 311.322 161.907 307.799 163.089C298.929 166.065 294.421 166.967 293.304 168.936C291.005 172.988 298.608 187.098 298.936 194.412C299.169 199.601 293.725 187.797 291.825 184.395C287.701 177.013 285.104 173.123 282.684 173.328C280.825 173.486 279.206 176.141 273.445 182.72C268.771 188.056 265.846 192.463 262.588 192.087C261.644 193.794 261.289 195.052 261.902 195.558C265.05 198.153 280.915 176.445 284.007 176.145C287.1 175.844 297.079 202.043 300.511 199.021C304.063 195.891 293.56 174.224 295.451 170.858C297.342 167.493 322.68 161.932 322.091 157.892C322.056 157.662 321.89 157.489 321.627 157.357Z" fill="black"/>
<circle cx="255.696" cy="499.822" r="8" fill="#52DE9B"/>
</g>
<defs>
<linearGradient id="paint0_linear_993_1062" x1="119.652" y1="53.2321" x2="182.956" y2="115.449" gradientUnits="userSpaceOnUse">
<stop stop-color="#9BFF13"/>
<stop offset="1" stop-color="#E4FF83"/>
</linearGradient>
<linearGradient id="paint1_linear_993_1062" x1="303.372" y1="416.275" x2="360.808" y2="559.183" gradientUnits="userSpaceOnUse">
<stop stop-opacity="0"/>
<stop offset="1" stop-color="#A9F801"/>
</linearGradient>
<linearGradient id="paint2_linear_993_1062" x1="300.694" y1="417.135" x2="362.725" y2="571.475" gradientUnits="userSpaceOnUse">
<stop stop-opacity="0"/>
<stop offset="1" stop-color="#A9F801"/>
</linearGradient>
<linearGradient id="paint3_linear_993_1062" x1="297.775" y1="417.982" x2="365.895" y2="587.473" gradientUnits="userSpaceOnUse">
<stop stop-opacity="0"/>
<stop offset="1" stop-color="#A9F801"/>
</linearGradient>
<linearGradient id="paint4_linear_993_1062" x1="293.907" y1="420.594" x2="369.74" y2="609.278" gradientUnits="userSpaceOnUse">
<stop stop-opacity="0"/>
<stop offset="1" stop-color="#A9F801"/>
</linearGradient>
<linearGradient id="paint5_linear_993_1062" x1="282.699" y1="422.961" x2="377.026" y2="657.658" gradientUnits="userSpaceOnUse">
<stop stop-opacity="0"/>
<stop offset="1" stop-color="#A9F801"/>
</linearGradient>
<linearGradient id="paint6_linear_993_1062" x1="288.258" y1="422.042" x2="373.55" y2="634.26" gradientUnits="userSpaceOnUse">
<stop stop-opacity="0"/>
<stop offset="1" stop-color="#A9F801"/>
</linearGradient>
<linearGradient id="paint7_linear_993_1062" x1="457.821" y1="72.5967" x2="20.1316" y2="-46.6429" gradientUnits="userSpaceOnUse">
<stop stop-color="#BFFF8C"/>
<stop offset="1" stop-color="#B8FFDD"/>
</linearGradient>
<linearGradient id="paint8_linear_993_1062" x1="201.643" y1="330.428" x2="320.643" y2="556.428" gradientUnits="userSpaceOnUse">
<stop stop-color="#54FEC7"/>
<stop offset="1" stop-color="#C6FF7C"/>
</linearGradient>
<linearGradient id="paint9_linear_993_1062" x1="407.687" y1="246.031" x2="407.687" y2="480.031" gradientUnits="userSpaceOnUse">
<stop stop-color="#53FEC8"/>
<stop offset="1" stop-color="#AFB3FF"/>
</linearGradient>
<linearGradient id="paint10_linear_993_1062" x1="170.462" y1="389.291" x2="223.334" y2="370.566" gradientUnits="userSpaceOnUse">
<stop stop-color="#DDFFFF"/>
<stop offset="1" stop-color="#E7F7D3"/>
</linearGradient>
<linearGradient id="paint11_linear_993_1062" x1="408.686" y1="27.3906" x2="408.686" y2="327.556" gradientUnits="userSpaceOnUse">
<stop stop-color="#42FF00"/>
<stop offset="1" stop-color="#F0FF97"/>
</linearGradient>
<clipPath id="clip0_993_1062">
<rect width="736.395" height="769.256" fill="white"/>
</clipPath>
<clipPath id="clip1_993_1062">
<rect width="204.688" height="79.5058" fill="white" transform="translate(227.227 480.901) rotate(-24.7563)"/>
</clipPath>
<clipPath id="clip2_993_1062">
<rect width="35.412" height="39" fill="white" transform="matrix(0.995329 0.0965399 0.0965399 -0.995329 601.015 170.013)"/>
</clipPath>
<clipPath id="clip3_993_1062">
<rect width="151.976" height="127.067" fill="white" transform="matrix(0.485364 0.797118 0.934295 -0.50223 201.109 142.852)"/>
</clipPath>
</defs>
</svg>
